<svg width="213" height="222" viewBox="0 0 213 222" fill="none" xmlns="http://www.w3.org/2000/svg">
<path d="M1 131.173C15 130.006 43.4 122.873 45 103.673C47 79.6728 65 155.673 110.5 121.173C156 86.6728 146.5 141.673 166.5 103.673C186.5 65.6728 161 154.173 210.5 121.173" stroke="white" stroke-width="9"/>
<path d="M28.0725 149.5L49.5725 160.5C37.9725 159.3 37.7391 163.333 39.0725 165.5C53.4725 188.7 84.7391 195.5 98.5725 196C98.5725 188.8 104.239 186 107.072 185.5V26C107.072 23.6 110.406 22.3333 112.072 22V220.5C106.472 220.5 106.406 214.833 107.072 212C104.672 212 100.406 207.333 98.5725 205C39.3725 201 26.9058 166.333 28.0725 149.5Z" fill="#535BF2"/>
<path d="M195.572 149.5L174.072 160.5C185.672 159.3 185.906 163.333 184.572 165.5C170.172 188.7 138.906 195.5 125.072 196C125.072 188.8 119.406 186 116.572 185.5V26C116.572 23.6 113.239 22.3333 111.572 22V220.5C117.172 220.5 117.239 214.833 116.572 212C118.972 212 123.239 207.333 125.072 205C184.272 201 196.739 166.333 195.572 149.5Z" fill="#535BF2"/>
<path d="M114.01 80.9852C124.082 80.8358 132.114 79.568 138.41 77.7723C140.76 77.1018 153.731 85.5144 154.508 87.8318C154.556 87.9765 154.606 88.1198 154.656 88.2617C155.31 90.1122 154.935 90.5541 153.089 89.8868C144.647 86.8348 125.993 87.0649 114.145 87.847C112.982 87.9237 112 87.0053 112 85.8402V83C112 81.8954 112.906 81.0016 114.01 80.9852Z" fill="#535BF2"/>
<path d="M110.49 80.9852C100.418 80.8358 92.3856 79.568 86.0903 77.7723C83.7397 77.1018 70.7694 85.5144 69.992 87.8318C69.9435 87.9765 69.8941 88.1198 69.844 88.2617C69.1904 90.1122 69.5653 90.5541 71.411 89.8868C79.8531 86.8348 98.5069 87.0649 110.355 87.847C111.518 87.9237 112.5 87.0053 112.5 85.8402V83C112.5 81.8954 111.594 81.0016 110.49 80.9852Z" fill="#535BF2"/>
<mask id="path-6-inside-1_5_10" fill="white">
<ellipse cx="111.5" cy="25.5" rx="22.5" ry="25.5"/>
</mask>
<path d="M95 25.5C95 23.2793 95.7938 20.4167 98.1662 17.728C100.604 14.9651 105.24 12 111.5 12V90C149.91 90 173 56.3919 173 25.5H95ZM111.5 12C117.76 12 122.396 14.9651 124.834 17.728C127.206 20.4167 128 23.2793 128 25.5H50C50 56.3919 73.0905 90 111.5 90V12ZM128 25.5C128 27.7207 127.206 30.5833 124.834 33.272C122.396 36.0349 117.76 39 111.5 39V-39C73.0905 -39 50 -5.39191 50 25.5H128ZM111.5 39C105.24 39 100.604 36.0349 98.1662 33.272C95.7938 30.5833 95 27.7207 95 25.5H173C173 -5.39191 149.91 -39 111.5 -39V39Z" fill="#535BF2" mask="url(#path-6-inside-1_5_10)"/>
<path d="M78.12 221.24C77.4 221.24 76.64 220.28 75.84 218.36C75.12 216.36 74.52 213.76 74.04 210.56C73.56 207.36 73.32 204 73.32 200.48C73.32 195.92 73.68 192 74.4 188.72C71.68 192.48 68.84 195.24 65.88 197C63 198.68 58.92 199.52 53.64 199.52C48.28 199.52 44.36 197.56 41.88 193.64C39.48 189.72 38.28 184.68 38.28 178.52C38.28 173.64 38.68 169.28 39.48 165.44C40.36 161.6 41.8 156.88 43.8 151.28C43.96 150.48 44.44 149.88 45.24 149.48C46.04 149 46.92 148.76 47.88 148.76C48.76 148.76 49.48 148.96 50.04 149.36C50.6 149.68 50.84 150.12 50.76 150.68C46.52 161.72 44.4 171.56 44.4 180.2C44.4 184.84 45.16 188.16 46.68 190.16C48.28 192.16 51 193.16 54.84 193.16C60.68 193.16 65.44 190.48 69.12 185.12C72.8 179.76 75.24 175.48 76.44 172.28C77.72 169.08 78.44 167.36 78.6 167.12C80.44 167.12 81.68 167.4 82.32 167.96C82.96 168.52 83.28 169.4 83.28 170.6C83.28 172.92 82.68 176.64 81.48 181.76C81.4 182.32 81.08 183.96 80.52 186.68C79.96 189.32 79.68 191.56 79.68 193.4C79.68 196.28 80.12 200.08 81 204.8C81.8 209.76 82.2 213.36 82.2 215.6C82.2 219.36 80.84 221.24 78.12 221.24ZM113.293 221.12C108.413 221.12 104.013 220.12 100.093 218.12C96.2531 216.04 93.2131 213.04 90.9731 209.12C88.8131 205.12 87.7331 200.36 87.7331 194.84C87.7331 190.28 88.9331 186.04 91.3331 182.12C93.7331 178.12 96.8131 174.96 100.573 172.64C104.333 170.32 108.133 169.16 111.973 169.16C115.493 169.16 118.933 170.48 122.293 173.12C125.733 175.76 128.533 179.16 130.693 183.32C132.853 187.48 133.933 191.76 133.933 196.16C133.933 203.52 132.133 209.52 128.533 214.16C125.013 218.8 119.933 221.12 113.293 221.12ZM111.493 214.28C121.973 214.28 127.213 208.6 127.213 197.24C127.213 193.56 126.573 190.08 125.293 186.8C124.013 183.52 122.133 180.88 119.653 178.88C117.253 176.88 114.453 175.88 111.253 175.88C106.373 175.88 102.293 177.48 99.0131 180.68C95.8131 183.88 93.8931 188.32 93.2531 194C93.1731 194.64 93.1331 195.56 93.1331 196.76C93.1331 202.28 94.8531 206.6 98.2931 209.72C101.813 212.76 106.213 214.28 111.493 214.28ZM179.37 221.24C178.65 221.24 177.89 220.28 177.09 218.36C176.37 216.36 175.77 213.76 175.29 210.56C174.81 207.36 174.57 204 174.57 200.48C174.57 195.92 174.93 192 175.65 188.72C172.93 192.48 170.09 195.24 167.13 197C164.25 198.68 160.17 199.52 154.89 199.52C149.53 199.52 145.61 197.56 143.13 193.64C140.73 189.72 139.53 184.68 139.53 178.52C139.53 173.64 139.93 169.28 140.73 165.44C141.61 161.6 143.05 156.88 145.05 151.28C145.21 150.48 145.69 149.88 146.49 149.48C147.29 149 148.17 148.76 149.13 148.76C150.01 148.76 150.73 148.96 151.29 149.36C151.85 149.68 152.09 150.12 152.01 150.68C147.77 161.72 145.65 171.56 145.65 180.2C145.65 184.84 146.41 188.16 147.93 190.16C149.53 192.16 152.25 193.16 156.09 193.16C161.93 193.16 166.69 190.48 170.37 185.12C174.05 179.76 176.49 175.48 177.69 172.28C178.97 169.08 179.69 167.36 179.85 167.12C181.69 167.12 182.93 167.4 183.57 167.96C184.21 168.52 184.53 169.4 184.53 170.6C184.53 172.92 183.93 176.64 182.73 181.76C182.65 182.32 182.33 183.96 181.77 186.68C181.21 189.32 180.93 191.56 180.93 193.4C180.93 196.28 181.37 200.08 182.25 204.8C183.05 209.76 183.45 213.36 183.45 215.6C183.45 219.36 182.09 221.24 179.37 221.24Z" fill="white"/>
</svg>
